<?xml version="1.0" encoding="UTF-8" standalone="no"?>
<!DOCTYPE svg PUBLIC "-//W3C//DTD SVG 1.1//EN"
 "http://www.w3.org/Graphics/SVG/1.1/DTD/svg11.dtd">
<!-- Generated by graphviz version 2.36.0 (20140111.2315)
 -->
<!-- Title: controllers_diagram Pages: 1 -->
<svg width="1565pt" height="1286pt"
 viewBox="0.00 0.00 1565.00 1286.00" xmlns="http://www.w3.org/2000/svg" xmlns:xlink="http://www.w3.org/1999/xlink">
<g id="graph0" class="graph" transform="scale(1 1) rotate(0) translate(4 1282)">
<title>controllers_diagram</title>
<polygon fill="none" stroke="none" points="-4,4 -4,-1282 1561,-1282 1561,4 -4,4"/>
<!-- _diagram_info -->
<g id="node1" class="node"><title>_diagram_info</title>
<text text-anchor="start" x="1308" y="-1263.6" font-family="Times,serif" font-size="13.00">Controllers diagram</text>
<text text-anchor="start" x="1308" y="-1249.6" font-family="Times,serif" font-size="13.00">Date: Jun 12 2016 &#45; 12:43</text>
<text text-anchor="start" x="1308" y="-1235.6" font-family="Times,serif" font-size="13.00">Migration version: 20160612123634</text>
<text text-anchor="start" x="1308" y="-1221.6" font-family="Times,serif" font-size="13.00">Generated by RailRoady 1.4.2</text>
<text text-anchor="start" x="1308" y="-1207.6" font-family="Times,serif" font-size="13.00">http://railroady.prestonlee.com</text>
</g>
<!-- BooksController -->
<g id="node2" class="node"><title>BooksController</title>
<path fill="none" stroke="black" d="M235.775,-890.005C235.775,-890.005 345.775,-890.005 345.775,-890.005 351.775,-890.005 357.775,-896.005 357.775,-902.005 357.775,-902.005 357.775,-1091 357.775,-1091 357.775,-1097 351.775,-1103 345.775,-1103 345.775,-1103 235.775,-1103 235.775,-1103 229.775,-1103 223.775,-1097 223.775,-1091 223.775,-1091 223.775,-902.005 223.775,-902.005 223.775,-896.005 229.775,-890.005 235.775,-890.005"/>
<text text-anchor="middle" x="290.775" y="-1087.8" font-family="Times,serif" font-size="14.00">BooksController</text>
<polyline fill="none" stroke="black" points="223.775,-1080 357.775,-1080 "/>
<text text-anchor="start" x="231.775" y="-1064.8" font-family="Times,serif" font-size="14.00">create</text>
<text text-anchor="start" x="231.775" y="-1049.8" font-family="Times,serif" font-size="14.00">destroy</text>
<text text-anchor="start" x="231.775" y="-1034.8" font-family="Times,serif" font-size="14.00">edit</text>
<text text-anchor="start" x="231.775" y="-1019.8" font-family="Times,serif" font-size="14.00">index</text>
<text text-anchor="start" x="231.775" y="-1004.8" font-family="Times,serif" font-size="14.00">new</text>
<text text-anchor="start" x="231.775" y="-989.805" font-family="Times,serif" font-size="14.00">show</text>
<text text-anchor="start" x="231.775" y="-974.805" font-family="Times,serif" font-size="14.00">update</text>
<polyline fill="none" stroke="black" points="223.775,-967.005 357.775,-967.005 "/>
<polyline fill="none" stroke="black" points="223.775,-943.005 357.775,-943.005 "/>
<text text-anchor="start" x="231.775" y="-927.805" font-family="Times,serif" font-size="14.00">_layout</text>
<text text-anchor="start" x="231.775" y="-912.805" font-family="Times,serif" font-size="14.00">book_params</text>
<text text-anchor="start" x="231.775" y="-897.805" font-family="Times,serif" font-size="14.00">set_book</text>
</g>
<!-- CopiesController -->
<g id="node3" class="node"><title>CopiesController</title>
<path fill="none" stroke="black" d="M1164.93,-892.99C1164.93,-892.99 1279.93,-892.99 1279.93,-892.99 1285.93,-892.99 1291.93,-898.99 1291.93,-904.99 1291.93,-904.99 1291.93,-988.99 1291.93,-988.99 1291.93,-994.99 1285.93,-1000.99 1279.93,-1000.99 1279.93,-1000.99 1164.93,-1000.99 1164.93,-1000.99 1158.93,-1000.99 1152.93,-994.99 1152.93,-988.99 1152.93,-988.99 1152.93,-904.99 1152.93,-904.99 1152.93,-898.99 1158.93,-892.99 1164.93,-892.99"/>
<text text-anchor="middle" x="1222.43" y="-985.79" font-family="Times,serif" font-size="14.00">CopiesController</text>
<polyline fill="none" stroke="black" points="1152.93,-977.99 1291.93,-977.99 "/>
<text text-anchor="start" x="1160.93" y="-962.79" font-family="Times,serif" font-size="14.00">change_state</text>
<text text-anchor="start" x="1160.93" y="-947.79" font-family="Times,serif" font-size="14.00">prolongate</text>
<polyline fill="none" stroke="black" points="1152.93,-939.99 1291.93,-939.99 "/>
<polyline fill="none" stroke="black" points="1152.93,-915.99 1291.93,-915.99 "/>
<text text-anchor="start" x="1160.93" y="-900.79" font-family="Times,serif" font-size="14.00">_layout</text>
</g>
<!-- Users::RegistrationsController -->
<g id="node4" class="node"><title>Users::RegistrationsController</title>
<path fill="none" stroke="black" d="M196.137,-0.5C196.137,-0.5 408.137,-0.5 408.137,-0.5 414.137,-0.5 420.137,-6.5 420.137,-12.5 420.137,-12.5 420.137,-80.5 420.137,-80.5 420.137,-86.5 414.137,-92.5 408.137,-92.5 408.137,-92.5 196.137,-92.5 196.137,-92.5 190.137,-92.5 184.137,-86.5 184.137,-80.5 184.137,-80.5 184.137,-12.5 184.137,-12.5 184.137,-6.5 190.137,-0.5 196.137,-0.5"/>
<text text-anchor="middle" x="302.137" y="-77.3" font-family="Times,serif" font-size="14.00">Users::RegistrationsController</text>
<polyline fill="none" stroke="black" points="184.137,-69.5 420.137,-69.5 "/>
<text text-anchor="start" x="192.137" y="-54.3" font-family="Times,serif" font-size="14.00">new</text>
<polyline fill="none" stroke="black" points="184.137,-46.5 420.137,-46.5 "/>
<text text-anchor="start" x="192.137" y="-31.3" font-family="Times,serif" font-size="14.00">sign_up</text>
<polyline fill="none" stroke="black" points="184.137,-23.5 420.137,-23.5 "/>
<text text-anchor="start" x="192.137" y="-8.3" font-family="Times,serif" font-size="14.00">_layout</text>
</g>
<!-- ApplicationController -->
<g id="node5" class="node"><title>ApplicationController</title>
<path fill="none" stroke="black" d="M508.41,-647.787C508.41,-647.787 737.41,-647.787 737.41,-647.787 743.41,-647.787 749.41,-653.787 749.41,-659.787 749.41,-659.787 749.41,-728.787 749.41,-728.787 749.41,-734.787 743.41,-740.787 737.41,-740.787 737.41,-740.787 508.41,-740.787 508.41,-740.787 502.41,-740.787 496.41,-734.787 496.41,-728.787 496.41,-728.787 496.41,-659.787 496.41,-659.787 496.41,-653.787 502.41,-647.787 508.41,-647.787"/>
<text text-anchor="middle" x="622.91" y="-725.587" font-family="Times,serif" font-size="14.00">ApplicationController</text>
<polyline fill="none" stroke="black" points="496.41,-717.787 749.41,-717.787 "/>
<polyline fill="none" stroke="black" points="496.41,-693.787 749.41,-693.787 "/>
<text text-anchor="start" x="504.41" y="-678.587" font-family="Times,serif" font-size="14.00">configure_permitted_parameters</text>
<polyline fill="none" stroke="black" points="496.41,-670.787 749.41,-670.787 "/>
<text text-anchor="start" x="504.41" y="-655.587" font-family="Times,serif" font-size="14.00">_layout</text>
</g>
<!-- ApplicationController&#45;&gt;BooksController -->
<g id="edge1" class="edge"><title>ApplicationController&#45;&gt;BooksController</title>
<path fill="none" stroke="black" d="M571.742,-740.846C514.331,-793.085 420.987,-878.021 357.795,-935.522"/>
</g>
<!-- ApplicationController&#45;&gt;CopiesController -->
<g id="edge2" class="edge"><title>ApplicationController&#45;&gt;CopiesController</title>
<path fill="none" stroke="black" d="M733.57,-740.931C856.049,-792.557 1049.71,-874.188 1152.68,-917.588"/>
</g>
<!-- HighVoltage::PagesController -->
<g id="node6" class="node"><title>HighVoltage::PagesController</title>
<path fill="none" stroke="black" d="M688.892,-932.94C688.892,-932.94 894.892,-932.94 894.892,-932.94 900.892,-932.94 906.892,-938.94 906.892,-944.94 906.892,-944.94 906.892,-1013.94 906.892,-1013.94 906.892,-1019.94 900.892,-1025.94 894.892,-1025.94 894.892,-1025.94 688.892,-1025.94 688.892,-1025.94 682.892,-1025.94 676.892,-1019.94 676.892,-1013.94 676.892,-1013.94 676.892,-944.94 676.892,-944.94 676.892,-938.94 682.892,-932.94 688.892,-932.94"/>
<text text-anchor="middle" x="791.892" y="-1010.74" font-family="Times,serif" font-size="14.00">HighVoltage::PagesController</text>
<polyline fill="none" stroke="black" points="676.892,-1002.94 906.892,-1002.94 "/>
<polyline fill="none" stroke="black" points="676.892,-978.94 906.892,-978.94 "/>
<text text-anchor="start" x="684.892" y="-963.74" font-family="Times,serif" font-size="14.00">_layout_from_proc</text>
<polyline fill="none" stroke="black" points="676.892,-955.94 906.892,-955.94 "/>
<text text-anchor="start" x="684.892" y="-940.74" font-family="Times,serif" font-size="14.00">_layout</text>
</g>
<!-- ApplicationController&#45;&gt;HighVoltage::PagesController -->
<g id="edge4" class="edge"><title>ApplicationController&#45;&gt;HighVoltage::PagesController</title>
<path fill="none" stroke="black" d="M650.625,-741.055C681.991,-793.986 732.789,-879.705 764.162,-932.646"/>
</g>
<!-- DeviseController -->
<g id="node13" class="node"><title>DeviseController</title>
<path fill="none" stroke="black" d="M821.465,-311.103C821.465,-311.103 1039.46,-311.103 1039.46,-311.103 1045.46,-311.103 1051.46,-317.103 1051.46,-323.103 1051.46,-323.103 1051.46,-691.103 1051.46,-691.103 1051.46,-697.103 1045.46,-703.103 1039.46,-703.103 1039.46,-703.103 821.465,-703.103 821.465,-703.103 815.465,-703.103 809.465,-697.103 809.465,-691.103 809.465,-691.103 809.465,-323.103 809.465,-323.103 809.465,-317.103 815.465,-311.103 821.465,-311.103"/>
<text text-anchor="middle" x="930.465" y="-687.903" font-family="Times,serif" font-size="14.00">DeviseController</text>
<polyline fill="none" stroke="black" points="809.465,-680.103 1051.46,-680.103 "/>
<text text-anchor="start" x="817.465" y="-664.903" font-family="Times,serif" font-size="14.00">_prefixes</text>
<polyline fill="none" stroke="black" points="809.465,-657.103 1051.46,-657.103 "/>
<text text-anchor="start" x="817.465" y="-641.903" font-family="Times,serif" font-size="14.00">assert_is_devise_resource!</text>
<text text-anchor="start" x="817.465" y="-626.903" font-family="Times,serif" font-size="14.00">clean_up_passwords</text>
<text text-anchor="start" x="817.465" y="-611.903" font-family="Times,serif" font-size="14.00">devise_i18n_options</text>
<text text-anchor="start" x="817.465" y="-596.903" font-family="Times,serif" font-size="14.00">devise_mapping</text>
<text text-anchor="start" x="817.465" y="-581.903" font-family="Times,serif" font-size="14.00">find_message</text>
<text text-anchor="start" x="817.465" y="-566.903" font-family="Times,serif" font-size="14.00">navigational_formats</text>
<text text-anchor="start" x="817.465" y="-551.903" font-family="Times,serif" font-size="14.00">require_no_authentication</text>
<text text-anchor="start" x="817.465" y="-536.903" font-family="Times,serif" font-size="14.00">resource</text>
<text text-anchor="start" x="817.465" y="-521.903" font-family="Times,serif" font-size="14.00">resource=</text>
<text text-anchor="start" x="817.465" y="-506.903" font-family="Times,serif" font-size="14.00">resource_class</text>
<text text-anchor="start" x="817.465" y="-491.903" font-family="Times,serif" font-size="14.00">resource_name</text>
<text text-anchor="start" x="817.465" y="-476.903" font-family="Times,serif" font-size="14.00">resource_params</text>
<text text-anchor="start" x="817.465" y="-461.903" font-family="Times,serif" font-size="14.00">respond_with_navigational</text>
<text text-anchor="start" x="817.465" y="-446.903" font-family="Times,serif" font-size="14.00">scope_name</text>
<text text-anchor="start" x="817.465" y="-431.903" font-family="Times,serif" font-size="14.00">set_flash_message</text>
<text text-anchor="start" x="817.465" y="-416.903" font-family="Times,serif" font-size="14.00">set_flash_message!</text>
<text text-anchor="start" x="817.465" y="-401.903" font-family="Times,serif" font-size="14.00">set_minimum_password_length</text>
<text text-anchor="start" x="817.465" y="-386.903" font-family="Times,serif" font-size="14.00">signed_in_resource</text>
<text text-anchor="start" x="817.465" y="-371.903" font-family="Times,serif" font-size="14.00">successfully_sent?</text>
<text text-anchor="start" x="817.465" y="-356.903" font-family="Times,serif" font-size="14.00">translation_scope</text>
<text text-anchor="start" x="817.465" y="-341.903" font-family="Times,serif" font-size="14.00">unknown_action!</text>
<polyline fill="none" stroke="black" points="809.465,-334.103 1051.46,-334.103 "/>
<text text-anchor="start" x="817.465" y="-318.903" font-family="Times,serif" font-size="14.00">_layout</text>
</g>
<!-- ApplicationController&#45;&gt;DeviseController -->
<g id="edge11" class="edge"><title>ApplicationController&#45;&gt;DeviseController</title>
<path fill="none" stroke="black" d="M699.33,-647.776C732.509,-627.583 772.184,-603.436 809.221,-580.894"/>
</g>
<!-- Devise::OmniauthCallbacksController -->
<g id="node7" class="node"><title>Devise::OmniauthCallbacksController</title>
<path fill="none" stroke="black" d="M99.1985,-594.174C99.1985,-594.174 363.199,-594.174 363.199,-594.174 369.199,-594.174 375.199,-600.174 375.199,-606.174 375.199,-606.174 375.199,-734.174 375.199,-734.174 375.199,-740.174 369.199,-746.174 363.199,-746.174 363.199,-746.174 99.1985,-746.174 99.1985,-746.174 93.1985,-746.174 87.1985,-740.174 87.1985,-734.174 87.1985,-734.174 87.1985,-606.174 87.1985,-606.174 87.1985,-600.174 93.1985,-594.174 99.1985,-594.174"/>
<text text-anchor="middle" x="231.199" y="-730.974" font-family="Times,serif" font-size="14.00">Devise::OmniauthCallbacksController</text>
<polyline fill="none" stroke="black" points="87.1985,-723.174 375.199,-723.174 "/>
<text text-anchor="start" x="95.1985" y="-707.974" font-family="Times,serif" font-size="14.00">failure</text>
<text text-anchor="start" x="95.1985" y="-692.974" font-family="Times,serif" font-size="14.00">passthru</text>
<polyline fill="none" stroke="black" points="87.1985,-685.174 375.199,-685.174 "/>
<text text-anchor="start" x="95.1985" y="-669.974" font-family="Times,serif" font-size="14.00">after_omniauth_failure_path_for</text>
<text text-anchor="start" x="95.1985" y="-654.974" font-family="Times,serif" font-size="14.00">failed_strategy</text>
<text text-anchor="start" x="95.1985" y="-639.974" font-family="Times,serif" font-size="14.00">failure_message</text>
<text text-anchor="start" x="95.1985" y="-624.974" font-family="Times,serif" font-size="14.00">translation_scope</text>
<polyline fill="none" stroke="black" points="87.1985,-617.174 375.199,-617.174 "/>
<text text-anchor="start" x="95.1985" y="-601.974" font-family="Times,serif" font-size="14.00">_layout</text>
</g>
<!-- Devise::PasswordsController -->
<g id="node8" class="node"><title>Devise::PasswordsController</title>
<path fill="none" stroke="black" d="M12,-258.471C12,-258.471 384,-258.471 384,-258.471 390,-258.471 396,-264.471 396,-270.471 396,-270.471 396,-443.471 396,-443.471 396,-449.471 390,-455.471 384,-455.471 384,-455.471 12,-455.471 12,-455.471 6,-455.471 0,-449.471 0,-443.471 0,-443.471 0,-270.471 0,-270.471 0,-264.471 6,-258.471 12,-258.471"/>
<text text-anchor="middle" x="198" y="-440.271" font-family="Times,serif" font-size="14.00">Devise::PasswordsController</text>
<polyline fill="none" stroke="black" points="0,-432.471 396,-432.471 "/>
<text text-anchor="start" x="8" y="-417.271" font-family="Times,serif" font-size="14.00">create</text>
<text text-anchor="start" x="8" y="-402.271" font-family="Times,serif" font-size="14.00">edit</text>
<text text-anchor="start" x="8" y="-387.271" font-family="Times,serif" font-size="14.00">new</text>
<text text-anchor="start" x="8" y="-372.271" font-family="Times,serif" font-size="14.00">update</text>
<polyline fill="none" stroke="black" points="0,-364.471 396,-364.471 "/>
<text text-anchor="start" x="8" y="-349.271" font-family="Times,serif" font-size="14.00">after_resetting_password_path_for</text>
<text text-anchor="start" x="8" y="-334.271" font-family="Times,serif" font-size="14.00">after_sending_reset_password_instructions_path_for</text>
<text text-anchor="start" x="8" y="-319.271" font-family="Times,serif" font-size="14.00">assert_reset_token_passed</text>
<text text-anchor="start" x="8" y="-304.271" font-family="Times,serif" font-size="14.00">translation_scope</text>
<text text-anchor="start" x="8" y="-289.271" font-family="Times,serif" font-size="14.00">unlockable?</text>
<polyline fill="none" stroke="black" points="0,-281.471 396,-281.471 "/>
<text text-anchor="start" x="8" y="-266.271" font-family="Times,serif" font-size="14.00">_layout</text>
</g>
<!-- Devise::ConfirmationsController -->
<g id="node9" class="node"><title>Devise::ConfirmationsController</title>
<path fill="none" stroke="black" d="M1098.56,-462.322C1098.56,-462.322 1463.56,-462.322 1463.56,-462.322 1469.56,-462.322 1475.56,-468.322 1475.56,-474.322 1475.56,-474.322 1475.56,-602.322 1475.56,-602.322 1475.56,-608.322 1469.56,-614.322 1463.56,-614.322 1463.56,-614.322 1098.56,-614.322 1098.56,-614.322 1092.56,-614.322 1086.56,-608.322 1086.56,-602.322 1086.56,-602.322 1086.56,-474.322 1086.56,-474.322 1086.56,-468.322 1092.56,-462.322 1098.56,-462.322"/>
<text text-anchor="middle" x="1281.06" y="-599.122" font-family="Times,serif" font-size="14.00">Devise::ConfirmationsController</text>
<polyline fill="none" stroke="black" points="1086.56,-591.322 1475.56,-591.322 "/>
<text text-anchor="start" x="1094.56" y="-576.122" font-family="Times,serif" font-size="14.00">create</text>
<text text-anchor="start" x="1094.56" y="-561.122" font-family="Times,serif" font-size="14.00">new</text>
<text text-anchor="start" x="1094.56" y="-546.122" font-family="Times,serif" font-size="14.00">show</text>
<polyline fill="none" stroke="black" points="1086.56,-538.322 1475.56,-538.322 "/>
<text text-anchor="start" x="1094.56" y="-523.122" font-family="Times,serif" font-size="14.00">after_confirmation_path_for</text>
<text text-anchor="start" x="1094.56" y="-508.122" font-family="Times,serif" font-size="14.00">after_resending_confirmation_instructions_path_for</text>
<text text-anchor="start" x="1094.56" y="-493.122" font-family="Times,serif" font-size="14.00">translation_scope</text>
<polyline fill="none" stroke="black" points="1086.56,-485.322 1475.56,-485.322 "/>
<text text-anchor="start" x="1094.56" y="-470.122" font-family="Times,serif" font-size="14.00">_layout</text>
</g>
<!-- Devise::RegistrationsController -->
<g id="node10" class="node"><title>Devise::RegistrationsController</title>
<path fill="none" stroke="black" d="M470.311,-205.031C470.311,-205.031 692.311,-205.031 692.311,-205.031 698.311,-205.031 704.311,-211.031 704.311,-217.031 704.311,-217.031 704.311,-510.031 704.311,-510.031 704.311,-516.031 698.311,-522.031 692.311,-522.031 692.311,-522.031 470.311,-522.031 470.311,-522.031 464.311,-522.031 458.311,-516.031 458.311,-510.031 458.311,-510.031 458.311,-217.031 458.311,-217.031 458.311,-211.031 464.311,-205.031 470.311,-205.031"/>
<text text-anchor="middle" x="581.311" y="-506.831" font-family="Times,serif" font-size="14.00">Devise::RegistrationsController</text>
<polyline fill="none" stroke="black" points="458.311,-499.031 704.311,-499.031 "/>
<text text-anchor="start" x="466.311" y="-483.831" font-family="Times,serif" font-size="14.00">cancel</text>
<text text-anchor="start" x="466.311" y="-468.831" font-family="Times,serif" font-size="14.00">create</text>
<text text-anchor="start" x="466.311" y="-453.831" font-family="Times,serif" font-size="14.00">destroy</text>
<text text-anchor="start" x="466.311" y="-438.831" font-family="Times,serif" font-size="14.00">edit</text>
<text text-anchor="start" x="466.311" y="-423.831" font-family="Times,serif" font-size="14.00">new</text>
<text text-anchor="start" x="466.311" y="-408.831" font-family="Times,serif" font-size="14.00">update</text>
<polyline fill="none" stroke="black" points="458.311,-401.031 704.311,-401.031 "/>
<text text-anchor="start" x="466.311" y="-385.831" font-family="Times,serif" font-size="14.00">account_update_params</text>
<text text-anchor="start" x="466.311" y="-370.831" font-family="Times,serif" font-size="14.00">after_inactive_sign_up_path_for</text>
<text text-anchor="start" x="466.311" y="-355.831" font-family="Times,serif" font-size="14.00">after_sign_up_path_for</text>
<text text-anchor="start" x="466.311" y="-340.831" font-family="Times,serif" font-size="14.00">after_update_path_for</text>
<text text-anchor="start" x="466.311" y="-325.831" font-family="Times,serif" font-size="14.00">authenticate_scope!</text>
<text text-anchor="start" x="466.311" y="-310.831" font-family="Times,serif" font-size="14.00">build_resource</text>
<text text-anchor="start" x="466.311" y="-295.831" font-family="Times,serif" font-size="14.00">sign_up</text>
<text text-anchor="start" x="466.311" y="-280.831" font-family="Times,serif" font-size="14.00">sign_up_params</text>
<text text-anchor="start" x="466.311" y="-265.831" font-family="Times,serif" font-size="14.00">translation_scope</text>
<text text-anchor="start" x="466.311" y="-250.831" font-family="Times,serif" font-size="14.00">update_needs_confirmation?</text>
<text text-anchor="start" x="466.311" y="-235.831" font-family="Times,serif" font-size="14.00">update_resource</text>
<polyline fill="none" stroke="black" points="458.311,-228.031 704.311,-228.031 "/>
<text text-anchor="start" x="466.311" y="-212.831" font-family="Times,serif" font-size="14.00">_layout</text>
</g>
<!-- Devise::RegistrationsController&#45;&gt;Users::RegistrationsController -->
<g id="edge3" class="edge"><title>Devise::RegistrationsController&#45;&gt;Users::RegistrationsController</title>
<path fill="none" stroke="black" d="M458.048,-223.554C416.565,-176.445 373.132,-127.122 342.675,-92.5355"/>
</g>
<!-- Devise::UnlocksController -->
<g id="node11" class="node"><title>Devise::UnlocksController</title>
<path fill="none" stroke="black" d="M642.857,-1.05151C642.857,-1.05151 950.857,-1.05151 950.857,-1.05151 956.857,-1.05151 962.857,-7.05151 962.857,-13.0515 962.857,-13.0515 962.857,-141.052 962.857,-141.052 962.857,-147.052 956.857,-153.052 950.857,-153.052 950.857,-153.052 642.857,-153.052 642.857,-153.052 636.857,-153.052 630.857,-147.052 630.857,-141.052 630.857,-141.052 630.857,-13.0515 630.857,-13.0515 630.857,-7.05151 636.857,-1.05151 642.857,-1.05151"/>
<text text-anchor="middle" x="796.857" y="-137.852" font-family="Times,serif" font-size="14.00">Devise::UnlocksController</text>
<polyline fill="none" stroke="black" points="630.857,-130.052 962.857,-130.052 "/>
<text text-anchor="start" x="638.857" y="-114.852" font-family="Times,serif" font-size="14.00">create</text>
<text text-anchor="start" x="638.857" y="-99.8515" font-family="Times,serif" font-size="14.00">new</text>
<text text-anchor="start" x="638.857" y="-84.8515" font-family="Times,serif" font-size="14.00">show</text>
<polyline fill="none" stroke="black" points="630.857,-77.0515 962.857,-77.0515 "/>
<text text-anchor="start" x="638.857" y="-61.8515" font-family="Times,serif" font-size="14.00">after_sending_unlock_instructions_path_for</text>
<text text-anchor="start" x="638.857" y="-46.8515" font-family="Times,serif" font-size="14.00">after_unlock_path_for</text>
<text text-anchor="start" x="638.857" y="-31.8515" font-family="Times,serif" font-size="14.00">translation_scope</text>
<polyline fill="none" stroke="black" points="630.857,-24.0515 962.857,-24.0515 "/>
<text text-anchor="start" x="638.857" y="-8.85151" font-family="Times,serif" font-size="14.00">_layout</text>
</g>
<!-- Devise::SessionsController -->
<g id="node12" class="node"><title>Devise::SessionsController</title>
<path fill="none" stroke="black" d="M1138.54,-6.04095C1138.54,-6.04095 1323.54,-6.04095 1323.54,-6.04095 1329.54,-6.04095 1335.54,-12.0409 1335.54,-18.0409 1335.54,-18.0409 1335.54,-206.041 1335.54,-206.041 1335.54,-212.041 1329.54,-218.041 1323.54,-218.041 1323.54,-218.041 1138.54,-218.041 1138.54,-218.041 1132.54,-218.041 1126.54,-212.041 1126.54,-206.041 1126.54,-206.041 1126.54,-18.0409 1126.54,-18.0409 1126.54,-12.0409 1132.54,-6.04095 1138.54,-6.04095"/>
<text text-anchor="middle" x="1231.04" y="-202.841" font-family="Times,serif" font-size="14.00">Devise::SessionsController</text>
<polyline fill="none" stroke="black" points="1126.54,-195.041 1335.54,-195.041 "/>
<text text-anchor="start" x="1134.54" y="-179.841" font-family="Times,serif" font-size="14.00">create</text>
<text text-anchor="start" x="1134.54" y="-164.841" font-family="Times,serif" font-size="14.00">destroy</text>
<text text-anchor="start" x="1134.54" y="-149.841" font-family="Times,serif" font-size="14.00">new</text>
<polyline fill="none" stroke="black" points="1126.54,-142.041 1335.54,-142.041 "/>
<text text-anchor="start" x="1134.54" y="-126.841" font-family="Times,serif" font-size="14.00">auth_options</text>
<text text-anchor="start" x="1134.54" y="-111.841" font-family="Times,serif" font-size="14.00">serialize_options</text>
<text text-anchor="start" x="1134.54" y="-96.8409" font-family="Times,serif" font-size="14.00">sign_in_params</text>
<text text-anchor="start" x="1134.54" y="-81.8409" font-family="Times,serif" font-size="14.00">translation_scope</text>
<polyline fill="none" stroke="black" points="1126.54,-74.0409 1335.54,-74.0409 "/>
<text text-anchor="start" x="1134.54" y="-58.8409" font-family="Times,serif" font-size="14.00">_layout</text>
<text text-anchor="start" x="1134.54" y="-43.8409" font-family="Times,serif" font-size="14.00">all_signed_out?</text>
<text text-anchor="start" x="1134.54" y="-28.8409" font-family="Times,serif" font-size="14.00">respond_to_on_destroy</text>
<text text-anchor="start" x="1134.54" y="-13.8409" font-family="Times,serif" font-size="14.00">verify_signed_out_user</text>
</g>
<!-- DeviseController&#45;&gt;Devise::OmniauthCallbacksController -->
<g id="edge5" class="edge"><title>DeviseController&#45;&gt;Devise::OmniauthCallbacksController</title>
<path fill="none" stroke="black" d="M809.46,-535.322C688.869,-563.444 503.659,-606.635 375.483,-636.526"/>
</g>
<!-- DeviseController&#45;&gt;Devise::PasswordsController -->
<g id="edge6" class="edge"><title>DeviseController&#45;&gt;Devise::PasswordsController</title>
<path fill="none" stroke="black" d="M809.092,-532.947C711.395,-548.752 571.651,-559.976 455.111,-525.231 406.417,-510.714 358.364,-483.707 317.217,-455.513"/>
</g>
<!-- DeviseController&#45;&gt;Devise::ConfirmationsController -->
<g id="edge7" class="edge"><title>DeviseController&#45;&gt;Devise::ConfirmationsController</title>
<path fill="none" stroke="black" d="M1051.61,-517.891C1062.99,-518.904 1074.71,-519.947 1086.54,-521.001"/>
</g>
<!-- DeviseController&#45;&gt;Devise::RegistrationsController -->
<g id="edge8" class="edge"><title>DeviseController&#45;&gt;Devise::RegistrationsController</title>
<path fill="none" stroke="black" d="M809.328,-457.291C775.45,-443.361 738.602,-428.209 704.601,-414.228"/>
</g>
<!-- DeviseController&#45;&gt;Devise::UnlocksController -->
<g id="edge9" class="edge"><title>DeviseController&#45;&gt;Devise::UnlocksController</title>
<path fill="none" stroke="black" d="M869.526,-310.954C852.148,-255.019 834.236,-197.366 820.544,-153.295"/>
</g>
<!-- DeviseController&#45;&gt;Devise::SessionsController -->
<g id="edge10" class="edge"><title>DeviseController&#45;&gt;Devise::SessionsController</title>
<path fill="none" stroke="black" d="M1051.64,-347.839C1084.81,-304.234 1119.96,-258.041 1150.27,-218.206"/>
</g>
</g>
</svg>
