<?xml version="1.0" encoding="UTF-8" standalone="no"?>
<!DOCTYPE svg PUBLIC "-//W3C//DTD SVG 1.1//EN"
 "http://www.w3.org/Graphics/SVG/1.1/DTD/svg11.dtd">
<!-- Generated by graphviz version 2.36.0 (20140111.2315)
 -->
<!-- Title: models_diagram Pages: 1 -->
<svg width="487pt" height="374pt"
 viewBox="0.00 0.00 487.00 374.00" xmlns="http://www.w3.org/2000/svg" xmlns:xlink="http://www.w3.org/1999/xlink">
<g id="graph0" class="graph" transform="scale(1 1) rotate(0) translate(4 370)">
<title>models_diagram</title>
<polygon fill="none" stroke="none" points="-4,4 -4,-370 483,-370 483,4 -4,4"/>
<!-- _diagram_info -->
<g id="node1" class="node"><title>_diagram_info</title>
<text text-anchor="start" x="7.5" y="-351.6" font-family="Times,serif" font-size="13.00">Models diagram</text>
<text text-anchor="start" x="7.5" y="-337.6" font-family="Times,serif" font-size="13.00">Date: Jun 12 2016 &#45; 12:43</text>
<text text-anchor="start" x="7.5" y="-323.6" font-family="Times,serif" font-size="13.00">Migration version: 20160612123634</text>
<text text-anchor="start" x="7.5" y="-309.6" font-family="Times,serif" font-size="13.00">Generated by RailRoady 1.4.2</text>
<text text-anchor="start" x="7.5" y="-295.6" font-family="Times,serif" font-size="13.00">http://railroady.prestonlee.com</text>
</g>
<!-- Penalty -->
<g id="node2" class="node"><title>Penalty</title>
<ellipse fill="none" stroke="black" cx="266" cy="-234" rx="45.244" ry="18"/>
<text text-anchor="middle" x="266" y="-230.3" font-family="Times,serif" font-size="14.00">Penalty</text>
</g>
<!-- User -->
<g id="node4" class="node"><title>User</title>
<ellipse fill="none" stroke="black" cx="268" cy="-162" rx="32.2457" ry="18"/>
<text text-anchor="middle" x="268" y="-158.3" font-family="Times,serif" font-size="14.00">User</text>
</g>
<!-- Penalty&#45;&gt;User -->
<g id="edge1" class="edge"><title>Penalty&#45;&gt;User</title>
<path fill="none" stroke="#a6b8a9" d="M260.212,-207.861C260.07,-201.449 260.267,-194.557 260.775,-188.145"/>
<ellipse fill="none" stroke="#a6b8a9" cx="260.414" cy="-212.06" rx="4" ry="4"/>
<ellipse fill="#a6b8a9" stroke="#a6b8a9" cx="261.238" cy="-183.767" rx="4" ry="4"/>
</g>
<!-- Borrow -->
<g id="node3" class="node"><title>Borrow</title>
<ellipse fill="none" stroke="black" cx="310" cy="-18" rx="44.271" ry="18"/>
<text text-anchor="middle" x="310" y="-14.3" font-family="Times,serif" font-size="14.00">Borrow</text>
</g>
<!-- Borrow&#45;&gt;Penalty -->
<g id="edge3" class="edge"><title>Borrow&#45;&gt;Penalty</title>
<path fill="none" stroke="#527ea6" d="M289.151,-41.3323C268.775,-64.8202 239.107,-103.879 227,-144 222.378,-159.318 222.01,-164.798 227,-180 230.421,-190.42 236.76,-200.478 243.348,-208.981"/>
<ellipse fill="none" stroke="#527ea6" cx="291.981" cy="-38.13" rx="4.00002" ry="4.00002"/>
<polygon fill="#527ea6" stroke="#527ea6" points="243.544,-209.217 246.454,-219.79 246.732,-213.068 249.921,-216.92 249.921,-216.92 249.921,-216.92 246.732,-213.068 253.387,-214.051 243.544,-209.217 243.544,-209.217"/>
</g>
<!-- User&#45;&gt;Penalty -->
<g id="edge7" class="edge"><title>User&#45;&gt;Penalty</title>
<path fill="none" stroke="#2033f3" d="M273.819,-189.968C273.882,-195.176 273.728,-200.634 273.373,-205.848"/>
<polygon fill="#2033f3" stroke="#2033f3" points="273.811,-189.78 277.878,-179.596 273.596,-184.784 273.382,-179.789 273.382,-179.789 273.382,-179.789 273.596,-184.784 268.886,-179.982 273.811,-189.78 273.811,-189.78"/>
<polygon fill="#2033f3" stroke="#2033f3" points="273.347,-206.104 267.884,-215.612 272.855,-211.079 272.362,-216.055 272.362,-216.055 272.362,-216.055 272.855,-211.079 276.84,-216.498 273.347,-206.104 273.347,-206.104"/>
</g>
<!-- User&#45;&gt;Borrow -->
<g id="edge5" class="edge"><title>User&#45;&gt;Borrow</title>
<path fill="none" stroke="#80dc53" d="M275.325,-136.233C282.799,-110.964 294.362,-71.8724 302.053,-45.8685"/>
<ellipse fill="none" stroke="#80dc53" cx="274.117" cy="-140.317" rx="4.00001" ry="4.00001"/>
<polygon fill="#80dc53" stroke="#80dc53" points="302.056,-45.8572 309.208,-37.5442 303.474,-41.0625 304.893,-36.2678 304.893,-36.2678 304.893,-36.2678 303.474,-41.0625 300.577,-34.9914 302.056,-45.8572 302.056,-45.8572"/>
</g>
<!-- Copy -->
<g id="node6" class="node"><title>Copy</title>
<ellipse fill="none" stroke="black" cx="347" cy="-90" rx="34.1708" ry="18"/>
<text text-anchor="middle" x="347" y="-86.3" font-family="Times,serif" font-size="14.00">Copy</text>
</g>
<!-- User&#45;&gt;Copy -->
<g id="edge6" class="edge"><title>User&#45;&gt;Copy</title>
<path fill="none" stroke="#b4e287" d="M292.433,-139.351C302.027,-130.85 313.015,-121.113 322.605,-112.616"/>
<polygon fill="#b4e287" stroke="#b4e287" points="292.238,-139.523 281.77,-142.787 288.496,-142.839 284.754,-146.155 284.754,-146.155 284.754,-146.155 288.496,-142.839 287.738,-149.523 292.238,-139.523 292.238,-139.523"/>
<polygon fill="#b4e287" stroke="#b4e287" points="322.786,-112.456 333.255,-109.192 326.528,-109.14 330.27,-105.824 330.27,-105.824 330.27,-105.824 326.528,-109.14 327.286,-102.456 322.786,-112.456 322.786,-112.456"/>
</g>
<!-- Book -->
<g id="node5" class="node"><title>Book</title>
<ellipse fill="none" stroke="black" cx="353" cy="-162" rx="34.1708" ry="18"/>
<text text-anchor="middle" x="353" y="-158.3" font-family="Times,serif" font-size="14.00">Book</text>
</g>
<!-- Book&#45;&gt;Copy -->
<g id="edge9" class="edge"><title>Book&#45;&gt;Copy</title>
<path fill="none" stroke="#cb9380" d="M350.826,-135.64C350.348,-130.063 349.84,-124.132 349.355,-118.476"/>
<ellipse fill="none" stroke="#cb9380" cx="351.175" cy="-139.711" rx="4" ry="4"/>
<polygon fill="#cb9380" stroke="#cb9380" points="349.32,-118.068 352.95,-107.72 348.893,-113.086 348.466,-108.104 348.466,-108.104 348.466,-108.104 348.893,-113.086 343.983,-108.489 349.32,-118.068 349.32,-118.068"/>
</g>
<!-- Copy&#45;&gt;Borrow -->
<g id="edge11" class="edge"><title>Copy&#45;&gt;Borrow</title>
<path fill="none" stroke="#b09a41" d="M334.347,-65.0625C330.949,-58.6325 327.256,-51.6473 323.799,-45.106"/>
<ellipse fill="none" stroke="#b09a41" cx="336.362" cy="-68.8746" rx="4.00002" ry="4.00002"/>
<polygon fill="#b09a41" stroke="#b09a41" points="323.636,-44.7972 322.941,-33.8533 321.299,-40.3767 318.963,-35.9562 318.963,-35.9562 318.963,-35.9562 321.299,-40.3767 314.984,-38.0591 323.636,-44.7972 323.636,-44.7972"/>
</g>
<!-- ActiveRecord::Base -->
<g id="node7" class="node"><title>ActiveRecord::Base</title>
<ellipse fill="none" stroke="black" cx="377" cy="-327" rx="102.061" ry="18"/>
<text text-anchor="middle" x="377" y="-323.3" font-family="Times,serif" font-size="14.00">ActiveRecord::Base</text>
</g>
<!-- ActiveRecord::Base&#45;&gt;Penalty -->
<g id="edge2" class="edge"><title>ActiveRecord::Base&#45;&gt;Penalty</title>
<path fill="none" stroke="black" d="M356.641,-309.309C336.237,-292.582 305.07,-267.03 285.117,-250.673"/>
</g>
<!-- ActiveRecord::Base&#45;&gt;Borrow -->
<g id="edge4" class="edge"><title>ActiveRecord::Base&#45;&gt;Borrow</title>
<path fill="none" stroke="black" d="M389.021,-309.032C398.445,-294.627 410.804,-273.005 416,-252 419.384,-238.322 417.659,-164.725 414,-144 408.135,-110.783 410.513,-98.7766 390,-72 376.626,-54.5424 355.774,-40.9969 338.712,-31.9706"/>
</g>
<!-- ActiveRecord::Base&#45;&gt;User -->
<g id="edge8" class="edge"><title>ActiveRecord::Base&#45;&gt;User</title>
<path fill="none" stroke="black" d="M369.96,-308.701C360.399,-286.233 341.958,-246.307 320,-216 309.714,-201.803 295.681,-187.733 284.786,-177.661"/>
</g>
<!-- ActiveRecord::Base&#45;&gt;Book -->
<g id="edge10" class="edge"><title>ActiveRecord::Base&#45;&gt;Book</title>
<path fill="none" stroke="black" d="M374.477,-308.864C369.88,-277.64 360.187,-211.812 355.561,-180.397"/>
</g>
<!-- ActiveRecord::Base&#45;&gt;Copy -->
<g id="edge12" class="edge"><title>ActiveRecord::Base&#45;&gt;Copy</title>
<path fill="none" stroke="black" d="M383.851,-308.989C396.086,-275.932 418.407,-201.244 396,-144 389.971,-128.597 377.131,-114.987 366.108,-105.416"/>
</g>
</g>
</svg>
